#define blue_19_bmsk_width 24
#define blue_19_bmsk_height 24
static char blue_19_bmsk_bits[] = {
   0x00, 0x00, 0x00, 0x00, 0xfe, 0x00, 0x80, 0xff, 0x03, 0xc0, 0xff, 0x07,
   0x60, 0xfe, 0x0c, 0x10, 0x38, 0x10, 0x00, 0x10, 0x00, 0x00, 0x00, 0x00,
   0x00, 0x00, 0x00, 0x00, 0x00, 0x00, 0x00, 0x00, 0x00, 0x00, 0x00, 0x00,
   0x00, 0x00, 0x00, 0x00, 0x10, 0x00, 0x10, 0x38, 0x30, 0x60, 0xfe, 0x1c,
   0xe0, 0xff, 0x0f, 0xc0, 0xff, 0x07, 0x80, 0xff, 0x07, 0x00, 0xff, 0x07,
   0x00, 0xfe, 0x0f, 0x00, 0xfc, 0x0f, 0x00, 0xf0, 0x07, 0x00, 0x00, 0x00};
