#define blue_19_emsk_width 24
#define blue_19_emsk_height 24
static char blue_19_emsk_bits[] = {
   0x00, 0x00, 0x00, 0x00, 0x00, 0x00, 0x00, 0x00, 0x00, 0x00, 0x00, 0x00,
   0x00, 0x00, 0x00, 0x80, 0x01, 0x03, 0xe0, 0xc7, 0x0f, 0xf0, 0xef, 0x1f,
   0xf0, 0xef, 0x1f, 0x78, 0xee, 0x3c, 0x78, 0xee, 0x3c, 0xf0, 0xef, 0x1f,
   0xf0, 0xef, 0x1f, 0xe0, 0xc7, 0x0f, 0x80, 0x01, 0x03, 0x00, 0x00, 0x00,
   0x00, 0x00, 0x00, 0x00, 0x00, 0x00, 0x00, 0x00, 0x00, 0x00, 0x00, 0x00,
   0x00, 0x00, 0x00, 0x00, 0x00, 0x00, 0x00, 0x00, 0x00, 0x00, 0x00, 0x00};
