#define green_19_emsk_width 24
#define green_19_emsk_height 24
static char green_19_emsk_bits[] = {
   0x00, 0x00, 0x00, 0x00, 0x00, 0x00, 0x00, 0x00, 0x00, 0x00, 0x00, 0x00,
   0x00, 0x00, 0x00, 0x00, 0x00, 0x00, 0x00, 0x00, 0x00, 0x00, 0x00, 0x00,
   0x00, 0x00, 0x00, 0xc0, 0x00, 0x03, 0xf0, 0xc3, 0x0f, 0xf8, 0xe7, 0x1f,
   0xf8, 0xe7, 0x1f, 0x3c, 0xe7, 0x3c, 0x3c, 0xe7, 0x3c, 0xf8, 0xe7, 0x1f,
   0xf8, 0xe7, 0x1f, 0xf0, 0xc3, 0x0f, 0xc0, 0x00, 0x03, 0x00, 0x00, 0x00,
   0x00, 0x00, 0x00, 0x00, 0x00, 0x00, 0x00, 0x00, 0x00, 0x00, 0x00, 0x00};
