#define green_19_bmsk_width 24
#define green_19_bmsk_height 24
static char green_19_bmsk_bits[] = {
   0x00, 0x00, 0x00, 0x00, 0x00, 0x00, 0x00, 0x00, 0x00, 0x00, 0x00, 0x00,
   0x00, 0x00, 0x00, 0x00, 0x00, 0x00, 0x00, 0xff, 0x00, 0xc0, 0xff, 0x03,
   0x20, 0xff, 0x04, 0x00, 0x3c, 0x00, 0x00, 0x18, 0x00, 0x00, 0x00, 0x00,
   0x00, 0x00, 0x00, 0x00, 0x00, 0x00, 0x00, 0x00, 0x00, 0x02, 0x00, 0x40,
   0x02, 0x00, 0x40, 0x06, 0x18, 0x60, 0x0c, 0x3c, 0x30, 0x3c, 0xff, 0x3c,
   0xf8, 0xff, 0x1f, 0xe0, 0xff, 0x07, 0x00, 0x00, 0x00, 0x00, 0x00, 0x00};
