#define obstacle_5_emsk_width 24
#define obstacle_5_emsk_height 24
static char obstacle_5_emsk_bits[] = {
   0x00, 0x00, 0x00, 0x00, 0x00, 0x00, 0x00, 0x00, 0x00, 0x00, 0x00, 0x00,
   0x00, 0x00, 0x00, 0x00, 0x00, 0x00, 0x00, 0x00, 0x00, 0x00, 0x00, 0x00,
   0x00, 0x00, 0x00, 0x40, 0x00, 0x02, 0xf0, 0x81, 0x0f, 0xf8, 0xc3, 0x1f,
   0xfc, 0xe7, 0x3f, 0xfc, 0xe7, 0x3f, 0x3e, 0xe7, 0x7c, 0x3c, 0xe7, 0x3c,
   0xfc, 0xe7, 0x3f, 0xf8, 0xc3, 0x1f, 0xf0, 0x81, 0x0f, 0x40, 0x00, 0x02,
   0x00, 0x00, 0x00, 0x00, 0x00, 0x00, 0x00, 0x00, 0x00, 0x00, 0x00, 0x00};
