#define obstacle_3_bmsk_width 24
#define obstacle_3_bmsk_height 24
static char obstacle_3_bmsk_bits[] = {
   0x00, 0x00, 0x00, 0x00, 0x00, 0x00, 0x00, 0x00, 0x00, 0x00, 0x3c, 0x00,
   0x80, 0xc3, 0x01, 0x60, 0x00, 0x06, 0x10, 0x00, 0x08, 0x08, 0x00, 0x10,
   0x04, 0x00, 0x20, 0x04, 0x00, 0x20, 0x02, 0x00, 0x40, 0x02, 0x00, 0x40,
   0x02, 0x00, 0x40, 0x02, 0x00, 0x40, 0x02, 0x00, 0x40, 0x02, 0x00, 0x40,
   0x04, 0x00, 0x20, 0x04, 0x00, 0x20, 0x08, 0x00, 0x10, 0x10, 0x00, 0x08,
   0x60, 0x00, 0x06, 0x80, 0xff, 0x01, 0x00, 0x00, 0x00, 0x00, 0x00, 0x00};
