#define obstacle_mini_bmsk_width 16
#define obstacle_mini_bmsk_height 16
static char obstacle_mini_bmsk_bits[] = {
   0x00, 0x00, 0x00, 0x00, 0xe0, 0x07, 0x18, 0x18, 0x04, 0x20, 0x02, 0x40,
   0x02, 0x40, 0x01, 0x80, 0x01, 0x80, 0x01, 0x80, 0x01, 0x80, 0x01, 0x80,
   0x02, 0x40, 0x0c, 0x30, 0xf0, 0x0f, 0x00, 0x00};
