#define puyo2_tile_width 24
#define puyo2_tile_height 24
static char puyo2_tile_bits[] = {
   0x55, 0x55, 0x55, 0xaa, 0xaa, 0xaa, 0x55, 0x55, 0x55, 0xaa, 0xaa, 0xaa,
   0x55, 0x55, 0x55, 0xaa, 0xaa, 0xaa, 0x55, 0x55, 0x55, 0xaa, 0xaa, 0xaa,
   0x55, 0x55, 0x55, 0xaa, 0xaa, 0xaa, 0x55, 0x55, 0x55, 0xaa, 0xaa, 0xaa,
   0x55, 0x55, 0x55, 0xaa, 0xaa, 0xaa, 0x55, 0x55, 0x55, 0xaa, 0xaa, 0xaa,
   0x55, 0x55, 0x55, 0xaa, 0xaa, 0xaa, 0x55, 0x55, 0x55, 0xaa, 0xaa, 0xaa,
   0x55, 0x55, 0x55, 0xaa, 0xaa, 0xaa, 0x55, 0x55, 0x55, 0xaa, 0xaa, 0xaa};
