#define puyo5_tile_width 24
#define puyo5_tile_height 24
static char puyo5_tile_bits[] = {
   0x6d, 0xdb, 0xb6, 0x00, 0x00, 0x00, 0x6d, 0xdb, 0xb6, 0x6d, 0xdb, 0xb6,
   0x00, 0x00, 0x00, 0x6d, 0xdb, 0xb6, 0x6d, 0xdb, 0xb6, 0x00, 0x00, 0x00,
   0x6d, 0xdb, 0xb6, 0x6d, 0xdb, 0xb6, 0x00, 0x00, 0x00, 0x6d, 0xdb, 0xb6,
   0x6d, 0xdb, 0xb6, 0x00, 0x00, 0x00, 0x6d, 0xdb, 0xb6, 0x6d, 0xdb, 0xb6,
   0x00, 0x00, 0x00, 0x6d, 0xdb, 0xb6, 0x6d, 0xdb, 0xb6, 0x00, 0x00, 0x00,
   0x6d, 0xdb, 0xb6, 0x6d, 0xdb, 0xb6, 0x00, 0x00, 0x00, 0x6d, 0xdb, 0xb6};
