#define puyo4_tile_width 24
#define puyo4_tile_height 24
static char puyo4_tile_bits[] = {
   0xee, 0xee, 0xee, 0xff, 0xff, 0xff, 0xbb, 0xbb, 0xbb, 0xff, 0xff, 0xff,
   0xee, 0xee, 0xee, 0xff, 0xff, 0xff, 0xbb, 0xbb, 0xbb, 0xff, 0xff, 0xff,
   0xee, 0xee, 0xee, 0xff, 0xff, 0xff, 0xbb, 0xbb, 0xbb, 0xff, 0xff, 0xff,
   0xee, 0xee, 0xee, 0xff, 0xff, 0xff, 0xbb, 0xbb, 0xbb, 0xff, 0xff, 0xff,
   0xee, 0xee, 0xee, 0xff, 0xff, 0xff, 0xbb, 0xbb, 0xbb, 0xff, 0xff, 0xff,
   0xee, 0xee, 0xee, 0xff, 0xff, 0xff, 0xbb, 0xbb, 0xbb, 0xff, 0xff, 0xff};
