#define puyo3_tile_width 24
#define puyo3_tile_height 24
static char puyo3_tile_bits[] = {
   0x6d, 0xdb, 0xb6, 0x6d, 0xdb, 0xb6, 0x6d, 0xdb, 0xb6, 0x6d, 0xdb, 0xb6,
   0x6d, 0xdb, 0xb6, 0x6d, 0xdb, 0xb6, 0x6d, 0xdb, 0xb6, 0x6d, 0xdb, 0xb6,
   0x6d, 0xdb, 0xb6, 0x6d, 0xdb, 0xb6, 0x6d, 0xdb, 0xb6, 0x6d, 0xdb, 0xb6,
   0x6d, 0xdb, 0xb6, 0x6d, 0xdb, 0xb6, 0x6d, 0xdb, 0xb6, 0x6d, 0xdb, 0xb6,
   0x6d, 0xdb, 0xb6, 0x6d, 0xdb, 0xb6, 0x6d, 0xdb, 0xb6, 0x6d, 0xdb, 0xb6,
   0x6d, 0xdb, 0xb6, 0x6d, 0xdb, 0xb6, 0x6d, 0xdb, 0xb6, 0x6d, 0xdb, 0xb6};
