#define red_19_bmsk_width 24
#define red_19_bmsk_height 24
static char red_19_bmsk_bits[] = {
   0x00, 0x00, 0x00, 0x00, 0x00, 0x00, 0x00, 0x04, 0x00, 0x00, 0x18, 0x00,
   0x00, 0x70, 0x00, 0x00, 0xf0, 0x00, 0x00, 0xe0, 0x01, 0x00, 0xe0, 0x03,
   0x00, 0xf0, 0x07, 0x00, 0x70, 0x0e, 0x04, 0x18, 0x08, 0x08, 0x0c, 0x10,
   0x38, 0x07, 0x00, 0xf0, 0x07, 0x20, 0xe0, 0x03, 0x00, 0xc0, 0x03, 0x00,
   0x80, 0x07, 0x20, 0x00, 0x07, 0x20, 0x00, 0x0e, 0x10, 0x00, 0x1c, 0x18,
   0x00, 0x78, 0x0e, 0x00, 0xe0, 0x03, 0x00, 0x00, 0x00, 0x00, 0x00, 0x00};
