#define splash_2_bmsk_width 24
#define splash_2_bmsk_height 24
static char splash_2_bmsk_bits[] = {
   0xf0, 0x00, 0x0f, 0xf8, 0x81, 0x1f, 0xfc, 0xc3, 0x3f, 0xfc, 0xc3, 0x3f,
   0xfc, 0xc3, 0x3f, 0xfc, 0xc3, 0x3f, 0xfc, 0xc3, 0x3f, 0xf8, 0xbd, 0x1f,
   0xf0, 0x7e, 0x0f, 0x00, 0xff, 0x00, 0x00, 0x7e, 0x00, 0xf0, 0xbd, 0x0f,
   0xf8, 0xdb, 0x1f, 0xfc, 0xe7, 0x3f, 0xfc, 0xe7, 0x3f, 0xfc, 0xe7, 0x3f,
   0xfc, 0xe7, 0x3f, 0xfc, 0xe7, 0x3f, 0xf8, 0xc3, 0x1f, 0xf0, 0x81, 0x0f,
   0x00, 0x00, 0x00, 0x00, 0x00, 0x00, 0x00, 0x00, 0x00, 0x00, 0x00, 0x00};
