#define splash_1_bmsk_width 24
#define splash_1_bmsk_height 24
static char splash_1_bmsk_bits[] = {
   0x00, 0x00, 0x00, 0x00, 0x00, 0x00, 0x00, 0x00, 0x00, 0x00, 0x00, 0x00,
   0x70, 0x7c, 0x1c, 0xf8, 0xfe, 0x3e, 0xf8, 0xfe, 0x3e, 0xf8, 0xfe, 0x3e,
   0x10, 0x38, 0x10, 0x00, 0x10, 0x00, 0x00, 0x00, 0x00, 0x00, 0x00, 0x00,
   0x00, 0x00, 0x00, 0x00, 0x00, 0x00, 0x00, 0x00, 0x00, 0x00, 0x10, 0x00,
   0x10, 0x38, 0x10, 0xf8, 0xfe, 0x3e, 0xf8, 0xfe, 0x3e, 0xf8, 0xfe, 0x3e,
   0x70, 0x7c, 0x1c, 0x00, 0x00, 0x00, 0x00, 0x00, 0x00, 0x00, 0x00, 0x00};
