#define splash_1_emsk_width 24
#define splash_1_emsk_height 24
static char splash_1_emsk_bits[] = {
   0x00, 0x00, 0x00, 0x00, 0x00, 0x00, 0x00, 0x00, 0x00, 0x00, 0x00, 0x00,
   0x00, 0x00, 0x00, 0x00, 0x00, 0x00, 0x00, 0x00, 0x00, 0x00, 0x00, 0x00,
   0x00, 0x00, 0x00, 0xe0, 0xc7, 0x0f, 0xf0, 0xef, 0x1f, 0xf0, 0xef, 0x1f,
   0xf0, 0x6c, 0x1e, 0xf0, 0x6c, 0x1e, 0xf0, 0xef, 0x1f, 0xe0, 0xc7, 0x0f,
   0x00, 0x00, 0x00, 0x00, 0x00, 0x00, 0x00, 0x00, 0x00, 0x00, 0x00, 0x00,
   0x00, 0x00, 0x00, 0x00, 0x00, 0x00, 0x00, 0x00, 0x00, 0x00, 0x00, 0x00};
