#define violet_19_bmsk_width 24
#define violet_19_bmsk_height 24
static char violet_19_bmsk_bits[] = {
   0x00, 0x00, 0x00, 0x00, 0x00, 0x00, 0x00, 0x00, 0x00, 0x00, 0x1e, 0x00,
   0x80, 0x0f, 0x00, 0xc0, 0x07, 0x00, 0xe0, 0x07, 0x20, 0xf0, 0x03, 0x00,
   0xf0, 0x03, 0x00, 0x38, 0x07, 0x00, 0x08, 0x04, 0x20, 0x00, 0x00, 0x00,
   0x00, 0x10, 0x18, 0x00, 0x70, 0x0e, 0x00, 0xe0, 0x07, 0x00, 0xe0, 0x03,
   0x00, 0xf0, 0x01, 0x00, 0xf0, 0x00, 0x00, 0x78, 0x00, 0x08, 0x3c, 0x00,
   0x30, 0x1f, 0x00, 0xc0, 0x07, 0x00, 0x00, 0x00, 0x00, 0x00, 0x00, 0x00};
