#define violet_19_emsk_width 24
#define violet_19_emsk_height 24
static char violet_19_emsk_bits[] = {
   0x00, 0x00, 0x00, 0x00, 0x00, 0x00, 0x00, 0x00, 0x00, 0x00, 0x80, 0x01,
   0x00, 0xe0, 0x07, 0x00, 0xf0, 0x0f, 0x00, 0x70, 0x0e, 0x00, 0x78, 0x1e,
   0x00, 0xf8, 0x1f, 0x00, 0xf0, 0x1f, 0xc0, 0xf0, 0x0f, 0xf0, 0xe3, 0x07,
   0xf8, 0x87, 0x01, 0xf8, 0x07, 0x00, 0x3c, 0x0f, 0x00, 0x3c, 0x0f, 0x00,
   0xf8, 0x07, 0x00, 0xf8, 0x07, 0x00, 0xf0, 0x03, 0x00, 0xc0, 0x00, 0x00,
   0x00, 0x00, 0x00, 0x00, 0x00, 0x00, 0x00, 0x00, 0x00, 0x00, 0x00, 0x00};
