#define yellow_19_bmsk_width 24
#define yellow_19_bmsk_height 24
static char yellow_19_bmsk_bits[] = {
   0x00, 0x00, 0x00, 0x00, 0x00, 0x00, 0x00, 0x00, 0x00, 0x00, 0x3c, 0x00,
   0x00, 0xff, 0x00, 0xc0, 0xff, 0x03, 0x60, 0xff, 0x06, 0x10, 0x3c, 0x08,
   0x00, 0x18, 0x00, 0x00, 0x00, 0x00, 0x00, 0x00, 0x00, 0x00, 0x00, 0x00,
   0x04, 0x00, 0x20, 0x04, 0x00, 0x20, 0x0e, 0x18, 0x70, 0x1e, 0x3c, 0x78,
   0x7e, 0xff, 0x7e, 0xfe, 0xff, 0x7f, 0xfe, 0xff, 0x7f, 0xfc, 0xff, 0x3f,
   0xf8, 0xff, 0x1f, 0xe0, 0xff, 0x07, 0x00, 0x00, 0x00, 0x00, 0x00, 0x00};
