#define yellow_19_emsk_width 24
#define yellow_19_emsk_height 24
static char yellow_19_emsk_bits[] = {
   0x00, 0x00, 0x00, 0x00, 0x00, 0x00, 0x00, 0x00, 0x00, 0x00, 0x00, 0x00,
   0x00, 0x00, 0x00, 0x00, 0x00, 0x00, 0x00, 0x00, 0x00, 0x80, 0x00, 0x01,
   0xe0, 0xc3, 0x07, 0xf0, 0xe7, 0x0f, 0xf0, 0xe7, 0x0f, 0x78, 0x66, 0x1e,
   0x70, 0x66, 0x0e, 0xf0, 0xe7, 0x0f, 0xe0, 0xc3, 0x07, 0x80, 0x00, 0x01,
   0x00, 0x00, 0x00, 0x00, 0x00, 0x00, 0x00, 0x00, 0x00, 0x00, 0x00, 0x00,
   0x00, 0x00, 0x00, 0x00, 0x00, 0x00, 0x00, 0x00, 0x00, 0x00, 0x00, 0x00};
